HIERARCHY
ROOT Bip001
{
 OFFSET 0.000000 0.000000 0.000000
 CHANNELS 6 Xposition Yposition Zposition Xrotation Yrotation Zrotation
 JOINT Bip001_Pelvis
 {
  OFFSET -0.041037 -0.005508 0.164154
  CHANNELS 3 Xrotation Yrotation Zrotation
  JOINT Bip001_Spine
  {
   OFFSET 0.044300 0.005946 0.077000
   CHANNELS 3 Xrotation Yrotation Zrotation
   JOINT Bip001_Spine1
   {
    OFFSET -0.000001 -0.000000 0.153780
    CHANNELS 3 Xrotation Yrotation Zrotation
    JOINT Bip001_Spine2
    {
     OFFSET 0.018201 0.002443 0.152706
     CHANNELS 3 Xrotation Yrotation Zrotation
     JOINT Bip001_Neck
     {
      OFFSET -0.043344 -0.005818 0.211513
      CHANNELS 3 Xrotation Yrotation Zrotation
      JOINT Bip001_Head
      {
       OFFSET -0.023929 -0.003212 0.056390
       CHANNELS 3 Xrotation Yrotation Zrotation
       End Site
       {
        OFFSET 0.000000 0.000000 0.000000
       }
      }
     }
     JOINT Bip001_L_Clavicle
     {
      OFFSET -0.029718 -0.053419 0.132514
      CHANNELS 3 Xrotation Yrotation Zrotation
      JOINT Bip001_L_UpperArm
      {
       OFFSET 0.024789 -0.162222 -0.026916
       CHANNELS 3 Xrotation Yrotation Zrotation
       JOINT Bip001_L_Forearm
       {
        OFFSET -0.026577 -0.286863 -0.153731
        CHANNELS 3 Xrotation Yrotation Zrotation
        JOINT Bip001_L_Hand
        {
         OFFSET -0.089077 -0.239781 -0.130038
         CHANNELS 3 Xrotation Yrotation Zrotation
         End Site
         {
          OFFSET 0.000000 0.000000 0.000000
         }
        }
       }
      }
     }
     JOINT Bip001_R_Clavicle
     {
      OFFSET -0.042752 0.043692 0.132514
      CHANNELS 3 Xrotation Yrotation Zrotation
      JOINT Bip001_R_UpperArm
      {
       OFFSET -0.018865 0.163017 -0.026916
       CHANNELS 3 Xrotation Yrotation Zrotation
       JOINT Bip001_R_Forearm
       {
        OFFSET -0.101279 0.269702 -0.153731
        CHANNELS 3 Xrotation Yrotation Zrotation
        JOINT Bip001_R_Hand
        {
         OFFSET -0.149152 0.207806 -0.130038
         CHANNELS 3 Xrotation Yrotation Zrotation
         End Site
         {
          OFFSET 0.000000 0.000000 0.000000
         }
        }
       }
      }
     }
    }
   }
  }
  JOINT Bip001_L_Thigh
  {
   OFFSET 0.011035 -0.082219 0.000000
   CHANNELS 3 Xrotation Yrotation Zrotation
   JOINT Bip001_L_Calf
   {
    OFFSET 0.010188 -0.013597 -0.536358
    CHANNELS 3 Xrotation Yrotation Zrotation
    JOINT Bip001_L_Foot
    {
     OFFSET 0.072725 0.000243 -0.475449
     CHANNELS 3 Xrotation Yrotation Zrotation
     End Site
     {
      OFFSET 0.000000 0.000000 0.000000
     }
    }
   }
  }
  JOINT Bip001_R_Thigh
  {
   OFFSET -0.011035 0.082219 0.000000
   CHANNELS 3 Xrotation Yrotation Zrotation
   JOINT Bip001_R_Calf
   {
    OFFSET 0.006242 0.015802 -0.536358
    CHANNELS 3 Xrotation Yrotation Zrotation
    JOINT Bip001_R_Foot
    {
     OFFSET 0.070215 0.018943 -0.475449
     CHANNELS 3 Xrotation Yrotation Zrotation
     End Site
     {
      OFFSET 0.000000 0.000000 0.000000
     }
    }
   }
  }
 }
}
MOTION
Frames: 18
Frame Time: 0.033333
0.000000 0.610116 0.000000 -89.761994 -0.569550 42.741185 18.462904 -6.567704 76.974083 4.530422 -23.961034 1.115648 1.081190 -5.997167 0.191988 0.464254 -2.401472 0.141039 -12.069063 15.782421 1.479003 -8.077239 5.832647 -40.445090 -7.120463 -0.723431 -3.018680 54.766381 44.929658 -22.340997 31.338431 26.728817 -94.074952 -56.685303 -26.823868 -29.395005 15.786129 1.905989 0.334285 -68.655145 -13.866722 -22.119584 -20.316168 18.928327 57.896048 16.554629 22.568864 10.978755 -10.558942 54.892121 1.397670 31.046382 -67.383272 23.322940 -5.470072 24.283836 -2.059000 7.674675 25.031056 11.437400 20.237232 -81.559230 14.642715 0.432938 -15.929890 4.949837
0.000000 0.591277 0.000000 -89.203484 1.598933 133.081561 18.668178 -6.615486 76.692930 2.771239 -23.106514 -2.357764 0.440333 -5.783107 -2.724684 0.333890 -2.299563 -2.757086 -12.394987 16.003583 1.618494 -9.662749 3.696707 -36.843758 -10.393701 -0.601143 -4.609990 47.325730 42.198070 -25.075190 27.444042 26.803759 -85.969091 -69.406982 -25.717907 -43.785448 16.515077 2.099039 0.227382 -69.949715 -15.805228 -29.490438 -16.289004 17.724351 49.137676 18.307566 20.460454 11.358817 -5.962577 46.642551 -2.449967 32.346296 -68.023989 24.533232 -3.000998 34.582080 -8.076763 3.929669 37.731205 4.808858 159.541247 -82.789274 153.137298 1.504294 -13.610437 -2.183522
-0.168651 0.591687 0.029506 -88.451451 2.037714 134.513511 18.948511 -6.348744 76.470962 0.826453 -22.758011 -5.581086 -0.074087 -5.716406 -5.417531 0.159244 -2.252458 -5.483917 -13.442827 16.724339 1.865116 -9.172879 3.150339 -32.693071 -11.073011 -0.799924 -4.347078 36.534212 38.829668 -23.889474 18.162924 24.869075 -66.549683 -64.572392 -19.685184 -42.505434 18.052263 2.475235 -0.160257 -70.640272 -17.632024 -33.696443 -13.666919 16.200118 43.138338 19.559431 19.966494 8.948595 -3.241199 35.472226 -4.471326 25.609126 -63.552763 18.174301 1.869407 34.860582 -13.951090 -0.847000 50.697636 3.120703 168.445933 -78.182551 161.865354 1.589343 -8.348146 -2.324014
-0.272994 0.606002 -0.103743 -89.593887 1.798196 136.648604 18.780578 -6.316057 76.252345 -2.275421 -22.610114 -8.512853 -0.898970 -5.619769 -7.589958 -0.129352 -2.274974 -7.580459 -13.726186 16.496497 1.954076 -8.708636 2.137583 -25.753361 -10.018101 -0.758015 -4.334876 28.573372 37.291326 -25.018789 7.604594 18.307978 -40.122987 -52.187578 -24.693677 -34.577995 19.265878 2.698651 0.373076 -71.295829 -19.599566 -37.565237 -13.354297 15.685438 42.146866 16.649987 20.064728 8.659961 -3.651299 22.615987 -5.016361 16.820827 -53.207194 10.038621 6.836980 26.779778 -18.884119 -6.968589 59.976820 4.543624 162.314223 -81.453320 155.938935 0.472966 -1.760927 0.365614
-0.415576 0.635234 -0.189045 -92.527449 0.056397 136.588346 18.862249 -6.252520 76.333580 -6.400944 -22.560442 -10.861063 -1.887754 -5.590361 -8.628509 -0.521096 -2.304944 -8.749058 -13.346633 16.383087 1.890140 -7.466813 0.467622 -17.755446 -7.371282 -0.443810 -5.097720 24.545687 36.507710 -26.224880 1.279416 7.660209 -14.811885 -31.766526 -33.276705 -14.148619 19.895944 3.154990 1.431144 -71.043363 -21.793089 -39.173238 -14.133146 15.744845 44.027954 15.964740 18.038470 12.293089 -5.442153 8.153270 -3.298087 8.744176 -34.413982 3.567270 10.663658 8.177328 -22.263839 -16.889617 64.200274 9.778181 37.688183 -85.066993 31.621372 -1.212037 3.477096 3.024609
-0.544166 0.665382 -0.083450 -95.045203 -0.057497 134.547836 19.201247 -6.082066 76.093799 -9.485810 -21.875663 -12.525672 -2.670826 -5.354163 -9.496242 -0.790128 -2.290446 -9.483663 -13.219923 15.704737 1.717163 -5.392823 -1.059923 -6.855035 -4.713546 -0.199848 -6.093949 21.635157 34.535921 -22.532090 -0.190471 -1.346623 2.648891 -19.403596 -8.965191 8.535591 19.609950 3.446264 2.395180 -69.450248 -23.893516 -37.659029 -14.926661 15.845084 45.165474 14.933995 16.858280 12.886557 -5.712401 5.089223 -1.296798 9.277056 -34.581837 3.636360 -1.004242 -15.305202 -17.161728 -24.965429 65.740061 14.062231 9.245303 -67.389405 3.471621 -3.903341 5.938600 4.684065
-0.636509 0.677866 -0.224609 -96.140381 -0.162297 133.399456 18.886086 -6.034509 75.959521 -10.865559 -21.526469 -13.142569 -2.960313 -5.223312 -9.747102 -0.957444 -2.245162 -9.700663 -13.273450 15.480506 1.644960 -4.513946 -1.583492 -2.393863 -3.480805 -0.212247 -6.189499 22.262683 34.234294 -21.107581 0.151522 -6.241974 11.694481 -13.338277 6.675351 17.779991 18.878391 3.477483 2.730041 -67.949177 -24.518391 -36.470103 -15.264827 15.885194 46.452622 14.383766 17.466537 12.451632 -11.136375 12.485209 -0.468156 14.895660 -47.762483 7.637471 11.803319 -6.227429 -25.605809 -27.868170 66.049311 14.599538 7.393919 -56.985819 1.464043 -6.034656 6.897268 5.324537
-0.774359 0.679320 -0.337237 -95.499243 -1.040810 130.191006 18.856265 -5.948991 75.302384 -10.702822 -22.326888 -13.071910 -2.915342 -5.427758 -9.471612 -0.938096 -2.325163 -9.479087 -13.013539 15.005521 1.505630 -2.761750 -0.502114 5.047633 -2.308357 -0.384063 -4.615746 25.245227 34.348099 -15.939930 -0.135816 -6.163947 11.002772 -8.739956 20.379128 20.751537 16.544072 3.046461 2.498235 -65.369576 -22.550908 -32.849973 -15.527219 15.763031 47.266454 14.848530 19.737450 13.029728 -9.728832 11.628921 -0.127101 19.021743 -54.052137 10.916028 14.806916 -11.824375 -20.078702 -24.193862 64.035207 7.021972 6.635632 -45.665897 0.432483 -7.395835 5.423374 5.533839
-0.886396 0.665703 -0.473571 -94.560677 -3.004264 127.785678 18.878430 -6.016545 74.831520 -9.759999 -23.674123 -12.151450 -2.572882 -5.820362 -8.456287 -0.791059 -2.473605 -8.397320 -12.266784 14.717986 1.372347 -0.541111 1.470685 13.325434 -0.773228 -0.349845 -2.776053 27.353567 33.920613 -6.696989 -0.766693 -0.448411 0.247391 -6.224029 30.639954 18.202479 14.236187 2.668188 2.261288 -63.062078 -19.435141 -28.102436 -16.219917 15.525012 48.571518 14.625946 20.979258 13.664594 -7.377945 11.380967 1.043606 24.305422 -60.027444 15.533213 15.801958 -17.333304 -13.185667 -22.430238 60.097840 3.600195 7.493716 -44.188383 0.377297 -3.161334 7.208341 6.322681
-1.009956 0.639403 -0.606677 -95.277635 -4.803701 124.639004 19.043878 -5.955221 74.710074 -8.784075 -24.802366 -10.221181 -2.229830 -6.143366 -6.521578 -0.665725 -2.564162 -6.516009 -10.883858 14.754200 1.241842 1.381165 3.890328 21.762046 0.355971 -0.228919 -1.764143 28.189090 35.602506 3.955359 -0.545427 4.535653 -9.796870 -6.763738 39.304033 18.064206 11.815070 2.447859 2.840030 -60.949015 -15.469768 -21.865896 -16.619185 15.120008 49.023468 15.407911 21.634959 13.208024 -7.966877 15.941899 2.898610 42.202883 -70.565105 33.013208 12.051489 -16.601940 -13.461762 -25.132117 55.367967 8.855073 9.343379 -52.585507 1.243270 1.872041 15.320038 4.694240
-1.093281 0.612030 -0.769056 -96.302010 -6.238150 120.997026 18.911489 -5.762845 74.341501 -7.190555 -26.158390 -7.405671 -1.703614 -6.519616 -3.933062 -0.523958 -2.667163 -4.016225 -9.801420 16.207087 1.349095 2.866913 5.316051 21.534035 0.332634 -0.231777 -1.701056 27.904396 38.274268 13.111745 0.147315 8.346404 -18.901480 -25.955298 52.923492 42.684652 10.245288 2.362646 4.117191 -59.707535 -10.009587 -13.456541 -15.934711 14.278009 47.292038 16.478111 23.722902 14.160709 -10.620055 25.507437 5.858676 99.054290 -75.744691 89.853699 6.746831 -15.643404 -14.432244 -25.396487 49.016048 13.928813 11.410276 -61.002347 2.885652 4.005989 23.886115 -0.053187
-1.174083 0.602192 -0.922384 -97.610721 -5.620472 115.110581 19.084642 -5.646474 73.345911 -4.895891 -26.281161 -4.007315 -1.090573 -6.531387 -1.081541 -0.307821 -2.694816 -1.132711 -8.632205 18.065635 1.326308 3.820198 4.660010 14.688736 -0.075376 -0.319859 -1.676304 26.967192 40.131927 19.724803 0.773254 11.221788 -26.302395 -44.261953 65.145395 69.923122 9.850301 2.522047 5.811333 -58.350904 -5.809743 -4.237153 -16.228877 13.785133 47.236098 14.934463 26.625988 13.930735 -15.879364 38.904267 10.582289 136.413372 -67.538689 127.514795 3.848242 -12.803342 -13.147710 -21.459287 36.572859 14.049462 12.603124 -60.198731 3.025054 5.017881 31.147175 -2.809925
-1.233586 0.613156 -1.083904 -98.419793 -4.288714 111.802421 19.162881 -5.532482 72.621838 -2.900963 -24.721551 -0.617876 -0.576296 -6.047601 1.664327 -0.148870 -2.512507 1.567145 -6.956491 18.635467 0.931885 4.123342 3.547234 8.305403 -0.502439 -0.486132 -1.315867 26.022185 40.054859 25.603775 1.524380 13.570466 -33.241478 -38.656524 62.012699 65.274013 11.469960 3.181576 6.725537 -58.909235 -3.481900 1.746220 -17.551200 13.327309 49.714230 14.476871 23.240741 14.282876 -29.749412 54.236149 20.797643 141.033600 -63.528449 132.552004 3.488782 -6.204008 -10.144680 -15.182926 22.062956 12.277316 13.251452 -47.415931 1.298299 5.846088 32.235994 -3.018172
-1.261988 0.640258 -1.256645 -96.771412 -3.051273 112.988692 19.311487 -5.313876 71.500978 0.042538 -21.758123 2.123960 0.110375 -5.292965 3.609006 0.071158 -2.202806 3.518835 -6.088387 17.997921 0.558319 3.616277 3.366181 1.707827 -1.094085 -0.576755 -0.986620 25.221782 38.940319 29.822993 3.809519 16.976263 -43.206470 -31.953896 55.364203 55.154966 12.262834 3.594819 6.855390 -59.147155 -3.141357 4.855121 -19.064528 12.922579 51.524841 13.856429 21.744129 14.091134 -45.238213 60.457685 34.097980 102.746993 -73.003645 93.866362 1.112076 1.754670 -5.694368 -7.896651 5.057854 10.670167 14.858810 -25.158272 -0.181854 7.232841 22.831694 -3.946100
-1.291490 0.679244 -1.425928 -92.010204 -2.323801 114.589797 19.467262 -5.220051 70.448954 3.234241 -18.687478 3.847988 0.820696 -4.528040 4.158610 0.315155 -1.911789 4.005937 -6.268586 16.334672 0.408356 2.168836 4.294223 -5.112125 -1.967237 -0.644686 -0.688383 27.672279 38.003482 29.255316 8.738231 20.791710 -57.747438 -27.911270 44.918235 42.453491 11.638784 3.400417 5.688177 -58.797751 -5.158510 2.945735 -20.646799 11.814292 54.224759 14.137092 23.316642 12.947589 -37.730706 59.102578 29.059420 35.362497 -61.584752 24.783201 -2.114614 8.552028 -1.655328 -1.216662 -7.672211 9.271298 11.293113 -12.487898 -0.440546 13.673840 -3.661490 -5.470361
-1.356844 0.703584 -1.573050 -89.404453 -2.525747 113.096330 19.328807 -5.201856 67.952012 6.362356 -16.639676 5.364592 1.695372 -3.996144 4.880109 0.687170 -1.761596 4.790610 -7.437485 14.351938 0.464117 1.626580 5.225734 -9.691349 -2.035382 -0.788380 -0.665656 26.558408 38.075727 27.300032 12.806139 22.876067 -71.752760 -27.957800 24.700765 32.243825 10.012542 3.080203 4.212927 -55.913400 -9.054029 1.532198 -21.708956 11.325971 56.094396 11.592376 25.332689 14.725525 -30.923115 54.798686 22.288745 20.507656 -38.559705 7.387870 -3.634971 10.304981 -0.766766 -3.706283 -4.861684 11.830878 16.319835 -20.998726 -0.235358 5.325144 0.981191 -6.443104
-1.492908 0.710372 -1.647940 -89.464753 -4.513316 110.188066 19.554559 -4.747932 65.130808 8.760082 -15.683781 6.052931 2.357849 -3.729690 5.452939 0.919011 -1.656503 5.521457 -9.004376 11.831027 0.488817 1.117853 5.893994 -12.183248 -1.455758 -1.091574 -0.348597 22.803834 38.360517 26.352094 13.719501 22.834072 -79.590279 -25.525400 13.223843 25.734900 8.693741 3.105103 3.817970 -49.139720 -11.804134 0.997868 -21.495176 8.863907 54.337700 7.534590 25.024425 14.294696 -28.490894 46.120831 18.320811 18.637620 -19.961744 1.969143 -4.650098 16.737326 -1.136340 -9.231108 -0.775339 14.334022 25.724972 -25.690877 0.332522 -5.141381 -6.725943 -1.828339
-1.545065 0.711837 -1.799646 -90.285238 -6.350708 108.718907 18.652051 -4.674777 62.099972 11.794498 -15.616609 7.121143 2.950285 -3.616534 6.086118 1.142938 -1.620830 5.991335 -11.616888 8.545007 0.590416 0.368048 6.041648 -14.267163 -1.079012 -0.940784 -0.575073 22.478530 39.818942 16.846268 16.909223 23.485690 -91.395110 -24.341204 -2.870038 8.636683 8.514091 3.310499 3.177115 -44.035794 -14.224707 -1.610641 -20.219830 6.160958 52.603152 2.983699 26.769285 11.954163 -27.384181 39.011051 16.050577 19.858420 -10.425828 0.191312 -5.690082 18.556104 -0.178991 -10.944312 -3.842947 13.713853 32.041414 -23.888494 0.426237 -4.503549 -9.717001 -0.104718
